HIERARCHY
ROOT Hips
{
   OFFSET 0.00000 0.00000 0.00000
   CHANNELS 6 Xposition Yposition Zposition Zrotation Xrotation Yrotation
   JOINT Spine
   {
      OFFSET 0.000000 13.079551 0.000000
      CHANNELS 3 Zrotation Xrotation Yrotation
      JOINT Spine1
      {
         OFFSET -0.000000 28.223142 0.140426
         CHANNELS 3 Zrotation Xrotation Yrotation
         JOINT HEad
         {
            OFFSET 0.000000 9.607577 0.012474
            CHANNELS 3 Zrotation Xrotation Yrotation
            End Site
            {
               OFFSET -0.319000 14.051621 2.765345
            }
         }
         JOINT LeftShoulder1
         {
            OFFSET 9.889000 -0.398475 -0.242000
            CHANNELS 3 Zrotation Xrotation Yrotation
            JOINT LeftArm
            {
               OFFSET 11.310971 -0.003718 0.354332
               CHANNELS 3 Zrotation Xrotation Yrotation
               JOINT LeftForeArm
               {
                  OFFSET 36.043591 0.109054 -1.566774
                  CHANNELS 3 Zrotation Xrotation Yrotation
                  JOINT LeftHand
                  {
                     OFFSET 30.320732 0.093896 1.124376
                     CHANNELS 3 Zrotation Xrotation Yrotation
                     End Site
                     {
                        OFFSET 18.418731 -0.660000 1.653201
                     }
                  }
               }
            }
         }
         JOINT RightShoulder
         {
            OFFSET -9.889000 -0.398475 -0.242000
            CHANNELS 3 Zrotation Xrotation Yrotation
            JOINT RightArm
            {
               OFFSET -11.310971 -0.003718 0.354332
               CHANNELS 3 Zrotation Xrotation Yrotation
               JOINT RightForeArm
               {
                  OFFSET -36.186809 0.109054 -1.566774
                  CHANNELS 3 Zrotation Xrotation Yrotation
                  JOINT RightHand
                  {
                     OFFSET -30.241313 0.093896 1.124376
                     CHANNELS 3 Zrotation Xrotation Yrotation
                     End Site
                     {
                        OFFSET -18.294322 -0.660000 1.653201
                     }
                  }
               }
            }
         }
      }
   }
   JOINT LeftUpLeg
   {
      OFFSET 9.840380 -9.533777 0.111815
      CHANNELS 3 Zrotation Xrotation Yrotation
      JOINT LeftLeg
      {
         OFFSET 0.000000 -48.864969 1.509970
         CHANNELS 3 Zrotation Xrotation Yrotation
         JOINT LeftFoot
         {
            OFFSET -0.278905 -46.301641 -1.606649
            CHANNELS 3 Zrotation Xrotation Yrotation
            JOINT LeftToes
            {
               OFFSET -0.044000 -4.856599 9.349010
               CHANNELS 3 Zrotation Xrotation Yrotation
               End Site
               {
                  OFFSET 0.088000 -0.052195 10.757769
               }
            }
         }
      }
   }
   JOINT RightUpLeg
   {
      OFFSET -9.840380 -9.533777 0.111815
      CHANNELS 3 Zrotation Xrotation Yrotation
      JOINT RightLeg
      {
         OFFSET 0.000000 -48.864969 1.509970
         CHANNELS 3 Zrotation Xrotation Yrotation
         JOINT RightFoot
         {
            OFFSET 0.278905 -46.301641 -1.606649
            CHANNELS 3 Zrotation Xrotation Yrotation
            JOINT RightToes
            {
               OFFSET 0.044000 -4.856599 9.349010
               CHANNELS 3 Zrotation Xrotation Yrotation
               End Site
               {
                  OFFSET -0.088000 -0.151195 10.757769
               }
            }
         }
      }
   }
}
MOTION
Frames: 12
Frame Time: 0.016670
42.990202 81.306666 -128.032358 -6.810762 1.825489 -22.526159 0.504591 4.729924 7.639917 1.856027 6.965119 3.036446 -14.781783 34.191657 20.089994 2.254384 38.150022 -35.674884 -1.831560 -45.758285 -42.156409 -9.067789 -25.427534 -113.046468 49.197115 7.388779 -7.362123 19.490672 28.086416 38.244784 34.520732 -30.621288 58.433190 17.087730 22.993835 115.382413 -34.870144 11.131654 -16.531523 32.919900 -50.006844 25.492436 0.085007 79.223453 10.296730 17.230564 -23.242869 8.917221 -13.024173 30.872691 -16.070793 -7.693663 -8.812687 10.388253 30.287002 64.624484 -28.922108 24.120683 -33.953301 21.539154 -59.931420 -5.230124 1.707418
42.854795 80.233144 -128.238791 -6.895575 1.287095 -22.819409 -0.593653 5.292583 7.321350 2.012069 6.911935 2.492148 -14.433170 34.008246 19.639606 2.381817 37.812624 -35.879110 -1.888040 -46.194451 -41.615612 -8.767239 -25.127894 -113.750892 49.181812 7.514709 -7.122492 19.945022 28.128413 38.309257 34.239902 -29.699339 58.099590 16.507686 23.006510 115.969550 -34.928375 11.190116 -16.726896 33.587329 -50.657761 25.581555 0.161512 81.292078 10.498001 17.653047 -23.077761 8.991208 -13.598713 30.374763 -16.392106 -7.850601 -9.397158 9.598947 32.016201 67.626885 -29.579808 27.268050 -33.739485 21.817602 -62.655866 -7.199985 2.158723
42.704729 79.134830 -128.431261 -6.805057 0.652336 -22.924669 -1.214688 5.900313 7.487638 2.399480 6.932461 2.484873 -14.173151 33.881304 19.207363 2.716193 37.539235 -36.049066 -1.893198 -46.105396 -41.353821 -8.527430 -25.063490 -113.972942 49.428085 7.551557 -6.922115 20.321095 27.991544 38.080299 33.913778 -29.206514 57.608787 15.958269 22.775421 116.474574 -34.971289 11.220964 -16.939243 34.065719 -51.327065 25.697320 0.371662 83.349809 10.366502 18.153219 -22.833980 8.996195 -14.291554 29.725226 -17.048950 -8.151406 -9.933266 8.700608 33.912432 70.811187 -30.440691 30.779872 -33.487540 22.298017 -65.341223 -9.318930 2.632877
42.537035 78.033408 -128.582781 -6.714734 0.033481 -23.093343 -2.000243 6.742801 7.784426 2.730928 6.815221 2.632303 -13.910487 33.866025 18.770972 3.038863 37.189605 -36.481878 -1.923814 -45.596055 -41.441135 -8.362298 -25.212209 -114.225235 49.519111 7.641417 -6.806355 20.542830 27.737412 37.787072 33.438858 -28.951181 57.038698 15.371686 22.410353 116.647132 -34.820277 11.213623 -17.116744 34.524820 -51.966630 25.770235 1.022133 85.400376 10.006202 18.736278 -22.557518 9.135296 -15.081088 28.886219 -17.820421 -8.394512 -10.467582 7.706817 35.958142 74.061162 -31.585704 34.606523 -33.178774 22.909725 -67.973537 -11.540749 3.102944
42.315912 76.951364 -128.696812 -6.612104 -0.735514 -23.507139 -2.833572 7.615623 8.037575 2.933244 6.650272 2.745576 -13.581768 33.916978 18.316317 3.182513 36.705457 -37.086442 -2.195658 -45.048342 -41.641918 -8.294431 -25.578428 -114.664464 49.470548 7.745205 -6.831753 20.666624 27.627453 37.602387 32.832371 -28.585486 56.527253 14.854545 22.174281 117.011126 -34.490652 11.147870 -17.258698 34.895938 -52.382169 25.778505 2.295180 87.511689 9.171684 19.389883 -22.210862 9.371787 -16.062868 27.914498 -18.694361 -8.740467 -10.861299 6.672120 38.224655 77.323288 -32.974985 38.650528 -32.764585 23.684934 -70.510044 -13.748733 3.692015
42.081336 75.928592 -128.791073 -6.251491 -1.692165 -23.761878 -3.444868 8.528167 8.192585 2.952480 6.610969 2.753077 -13.269592 34.022453 17.866308 3.361029 36.179427 -37.763860 -2.499216 -44.310446 -42.013218 -8.291016 -25.994433 -115.249689 49.287075 7.895079 -6.966983 20.682994 27.510347 37.275160 32.163351 -28.366576 56.008668 14.389433 21.867945 117.408889 -34.204392 11.080544 -17.030836 35.093007 -52.598460 25.979055 4.381504 89.466476 7.247470 20.075823 -21.785590 9.495998 -17.101142 26.878987 -19.667931 -9.340368 -11.078843 5.702440 40.663395 80.459936 -34.570808 42.821806 -32.218665 24.594055 -73.007038 -15.912558 4.311184
41.828369 74.993633 -128.861683 -6.015765 -2.444008 -23.861192 -4.035623 9.177405 8.531723 2.868185 6.723301 2.948450 -13.108070 34.074482 17.460045 3.756409 35.711313 -38.115659 -2.755322 -43.493234 -42.380777 -8.322995 -26.270634 -116.024492 49.119917 8.030159 -7.206813 20.774833 27.416420 37.043876 31.627065 -28.139109 55.653723 14.060355 21.415025 117.798210 -33.970304 11.013767 -16.804470 35.393986 -52.888194 26.114118 8.304073 91.183271 3.544331 20.784985 -21.392479 9.681245 -18.154819 25.838235 -20.456973 -9.689474 -11.222121 4.558527 43.148241 83.290796 -36.399782 47.055325 -31.619101 25.528563 -75.469642 -17.915740 5.002435
41.539778 74.223007 -128.870209 -5.697255 -3.006531 -23.894263 -4.551075 9.772093 8.782336 2.819068 6.685128 3.099598 -13.101955 34.082521 17.097027 4.362708 34.930328 -38.140381 -3.096563 -42.740855 -42.869720 -8.331381 -26.760193 -116.204426 48.648808 8.288143 -7.256810 20.858313 27.289273 36.913016 31.219978 -27.986926 55.511430 13.895239 20.777114 118.074518 -33.795247 10.945931 -16.587775 35.913237 -53.186055 26.134413 12.923613 95.916777 -0.877804 21.505351 -20.953735 9.855890 -19.157468 24.890365 -21.052042 -9.954629 -11.389294 3.425228 45.422414 85.779342 -38.255381 51.294126 -30.997448 26.497837 -77.856479 -19.671389 5.783936
41.239571 73.557404 -128.852547 -5.403795 -3.306575 -23.803479 -4.884922 10.419355 9.055188 2.653933 6.656921 3.276610 -13.136062 34.039409 16.755706 5.111613 34.199447 -37.824283 -3.475779 -42.074696 -43.258296 -8.310293 -27.218811 -116.391341 48.239539 8.400030 -7.478206 20.756984 27.167827 36.749573 30.765320 -27.838987 55.476617 13.799295 20.189930 118.247896 -33.518433 10.918765 -16.511745 36.092355 -53.662392 26.582775 12.817040 95.918723 -0.779516 22.194584 -20.577178 9.929887 -20.078115 23.907947 -21.441675 -10.037069 -11.359460 2.261623 47.195419 87.803284 -39.894944 55.541934 -30.431952 27.527174 -80.240680 -21.225018 6.554510
40.933327 73.015965 -128.819311 -5.116444 -3.649041 -23.575513 -5.104359 10.798462 9.171140 2.424745 6.635496 3.304257 -13.078203 34.064537 16.400843 5.562366 33.613956 -37.582839 -3.930212 -41.775763 -43.494795 -8.334248 -27.673736 -116.213825 47.767932 8.547061 -7.621778 20.585758 27.084516 36.773110 30.347248 -27.632121 55.518786 13.725094 19.591421 118.245956 -33.179628 10.887164 -16.578420 36.141266 -54.036885 27.033873 12.689722 95.969718 -0.715598 22.843235 -20.075084 9.950191 -20.895871 22.989860 -21.600407 -10.063020 -11.284156 1.461933 48.292952 89.261236 -40.830919 59.595600 -29.647631 28.413923 -82.618200 -22.607417 7.381118
40.587921 72.684873 -128.725002 -4.869829 -3.805111 -23.306115 -5.377168 11.130508 9.247981 2.213186 6.613801 3.306339 -13.059095 34.110737 16.061839 5.934108 33.089828 -37.455309 -4.240088 -41.507032 -43.816931 -8.490930 -27.952879 -116.084898 47.579962 8.583116 -7.752468 20.340756 27.011416 36.939948 30.040961 -27.539804 55.561458 13.595481 18.926666 118.179717 -32.858619 10.882005 -16.770059 36.117409 -54.333182 27.368913 12.557426 95.994375 -0.696150 23.430341 -19.560446 9.945899 -21.337581 22.113362 -21.435053 -9.955514 -11.174554 0.992339 48.353740 90.058278 -40.797283 63.480755 -28.750821 29.166479 -84.958722 -23.749642 8.296451
40.233817 72.470735 -128.605364 -4.611263 -3.881777 -23.001615 -5.511706 11.344076 9.357172 2.040497 6.523839 3.354970 -13.026983 34.138993 15.730250 6.219529 32.648892 -37.359448 -4.533832 -41.392336 -44.102685 -8.742142 -28.098510 -115.890702 47.659988 8.536773 -7.907492 20.083616 26.924029 37.131309 29.726575 -27.484459 55.566085 13.424814 18.265821 118.097686 -32.753667 10.863274 -16.936398 35.996596 -54.565401 27.598976 12.448440 96.121368 -0.719711 23.952142 -19.028267 9.911535 -21.619123 21.136958 -21.046758 -9.834302 -10.986045 0.869470 47.352988 90.291426 -39.727939 67.196596 -27.768720 29.796089 -87.473283 -24.791690 9.066635
